<svg xmlns="http://www.w3.org/2000/svg" width="400" height="120">
<g>
	<path d="M17.6,7.7c0.3,0.2,0.6,0.4,0.7,0.8c0.1,0.3,0.1,0.7,0,1c-0.1,0.3-0.3,0.6-0.7,0.8l-11,6.5c-0.3,0.2-0.6,0.3-1,0.2
		s-0.7-0.2-0.9-0.5c-0.2-0.3-0.4-0.6-0.4-1v-13c0-0.4,0.1-0.8,0.4-1C4.9,1.2,5.2,1,5.6,1c0.4-0.1,0.7,0,1,0.2L17.6,7.7z"/>
</g>
<path d="M149.2,78c0-16.1-13.1-29.2-29.2-29.2h0c-16.1,0-29.2,13.1-29.2,29.3c0,16.1,13.1,29.2,29.2,29.2S149.2,94.2,149.2,78
	L149.2,78L149.2,78z M134.8,79.2c-0.2,0.6-0.6,1.1-1.3,1.5l-20.6,12.2c-0.6,0.4-1.2,0.5-1.9,0.4s-1.2-0.4-1.7-0.9s-0.7-1.1-0.7-1.8
	V66.1c0-0.8,0.2-1.4,0.7-1.9s1-0.8,1.7-0.9s1.3,0,1.8,0.4l20.6,12.2c0.6,0.4,1,0.8,1.3,1.5S135,78.6,134.8,79.2z"/>
<path opacity="0.7" d="M70.2,78c0-16.1-13.1-29.2-29.2-29.2h0c-16.1,0-29.2,13.1-29.2,29.3c0,16.1,13.1,29.2,29.2,29.2
	S70.2,94.2,70.2,78L70.2,78L70.2,78z M55.8,79.2c-0.2,0.6-0.6,1.1-1.3,1.5L33.9,92.8c-0.6,0.4-1.2,0.5-1.9,0.4
	c-0.7-0.1-1.2-0.4-1.7-0.9s-0.7-1.1-0.7-1.8V66.1c0-0.8,0.2-1.4,0.7-1.9s1-0.8,1.7-0.9c0.7-0.1,1.3,0,1.8,0.4l20.6,12.2
	c0.6,0.4,1,0.8,1.3,1.5S56,78.6,55.8,79.2z"/>
<g>
	<path d="M24.5,15.9c-0.4,0-0.8-0.1-1.1-0.4c-0.3-0.3-0.4-0.6-0.4-1.1v-11c0-0.4,0.1-0.8,0.4-1.1c0.3-0.3,0.6-0.4,1.1-0.4h3
		c0.4,0,0.8,0.1,1.1,0.4C28.9,2.7,29,3,29,3.4v11c0,0.4-0.1,0.8-0.4,1.1c-0.3,0.3-0.6,0.4-1.1,0.4H24.5z M37,3.4
		c0-0.4-0.1-0.8-0.4-1.1c-0.3-0.3-0.6-0.4-1.1-0.4h-3c-0.4,0-0.8,0.1-1.1,0.4C31.1,2.7,31,3,31,3.4v11c0,0.4,0.1,0.8,0.4,1.1
		c0.3,0.3,0.6,0.4,1.1,0.4h3c0.4,0,0.8-0.1,1.1-0.4c0.3-0.3,0.4-0.6,0.4-1.1V3.4z"/>
</g>
<g>
	<path d="M49,15.5c0,0.2-0.1,0.4-0.2,0.5c-0.1,0.1-0.3,0.2-0.5,0.2c-0.2,0-0.4-0.1-0.5-0.2l-2.8-2.8h-3.2c-0.2,0-0.4-0.1-0.5-0.2
		c-0.1-0.1-0.2-0.3-0.2-0.5V8c0-0.2,0.1-0.4,0.2-0.5c0.1-0.1,0.3-0.2,0.5-0.2h3.2l2.8-2.8c0.1-0.1,0.3-0.2,0.5-0.2
		c0.2,0,0.4,0.1,0.5,0.2C48.9,4.6,49,4.8,49,5V15.5z"/>
</g>
<g>
	<path d="M69,15.6c0,0.2-0.1,0.4-0.2,0.5c-0.1,0.1-0.3,0.2-0.5,0.2s-0.4-0.1-0.5-0.2l-2.8-2.8h-3.2c-0.2,0-0.4-0.1-0.5-0.2
		C61.1,13,61,12.8,61,12.6V8.1c0-0.2,0.1-0.4,0.2-0.5c0.1-0.1,0.3-0.2,0.5-0.2h3.2l2.8-2.8c0.1-0.1,0.3-0.2,0.5-0.2s0.4,0.1,0.5,0.2
		C68.9,4.7,69,4.9,69,5.1V15.6z M72.6,8.9c-0.3-0.5-0.6-0.8-1.1-1.1c-0.2-0.1-0.5-0.2-0.8-0.1c-0.3,0.1-0.5,0.2-0.6,0.5
		C70,8.4,70,8.6,70.1,8.9c0.1,0.3,0.2,0.5,0.5,0.6C70.8,9.7,71,10,71,10.4c0,0.4-0.1,0.6-0.4,0.8c-0.2,0.2-0.4,0.4-0.4,0.7
		c0,0.3,0,0.5,0.2,0.8c0.2,0.2,0.4,0.4,0.6,0.4c0.3,0,0.5,0,0.8-0.2c0.4-0.3,0.7-0.7,0.9-1.1c0.2-0.4,0.3-0.9,0.3-1.4
		C73,9.9,72.9,9.4,72.6,8.9z M75.2,7.4c-0.5-0.9-1.2-1.6-2.1-2.2c-0.2-0.1-0.5-0.2-0.8-0.1c-0.3,0.1-0.5,0.2-0.6,0.5
		c-0.1,0.2-0.2,0.5-0.1,0.8c0.1,0.3,0.2,0.5,0.5,0.6c0.6,0.4,1,0.8,1.4,1.4c0.3,0.6,0.5,1.3,0.5,2c0,0.6-0.2,1.3-0.5,1.8
		c-0.3,0.6-0.7,1.1-1.3,1.4c-0.2,0.2-0.4,0.4-0.4,0.7c-0.1,0.3,0,0.5,0.2,0.8c0.2,0.3,0.5,0.4,0.8,0.4c0.2,0,0.4-0.1,0.6-0.2
		c0.8-0.6,1.4-1.3,1.9-2.2c0.5-0.9,0.7-1.8,0.7-2.8C76,9.3,75.7,8.3,75.2,7.4z M73.9,2.6c-0.3,0.1-0.5,0.2-0.6,0.5
		c-0.1,0.2-0.2,0.5-0.1,0.8c0.1,0.3,0.2,0.5,0.5,0.6c1,0.6,1.8,1.5,2.4,2.5C76.7,8,77,9.1,77,10.4c0,1.1-0.3,2.2-0.8,3.3
		c-0.5,1-1.3,1.9-2.2,2.5c-0.2,0.2-0.3,0.4-0.4,0.7c-0.1,0.3,0,0.5,0.2,0.8c0.2,0.2,0.4,0.4,0.6,0.4c0.3,0,0.5,0,0.8-0.2
		c1.2-0.9,2.2-1.9,2.8-3.2c0.7-1.3,1-2.7,1-4.2c0-1.6-0.4-3.1-1.2-4.4C77,4.6,76,3.5,74.7,2.7C74.5,2.5,74.2,2.5,73.9,2.6z"/>
</g>
<g>
	<path d="M82.9,3.1c0-0.2,0.1-0.4,0.2-0.5c0.1-0.1,0.3-0.2,0.5-0.2h3.9c0.1,0,0.2,0,0.3,0.1c0.1,0.1,0.1,0.2,0.1,0.3v1.3
		c0,0.1,0,0.2-0.1,0.3c-0.1,0.1-0.2,0.1-0.3,0.1h-2.6v2.6c0,0.1,0,0.2-0.1,0.3c-0.1,0.1-0.2,0.1-0.3,0.1h-1.3c-0.1,0-0.2,0-0.3-0.1
		c-0.1-0.1-0.1-0.2-0.1-0.3V3.1z M87.9,14.7c0-0.1,0-0.2-0.1-0.3c-0.1-0.1-0.2-0.1-0.3-0.1h-2.6v-2.6c0-0.1,0-0.2-0.1-0.3
		c-0.1-0.1-0.2-0.1-0.3-0.1h-1.3c-0.1,0-0.2,0-0.3,0.1c-0.1,0.1-0.1,0.2-0.1,0.3v3.9c0,0.2,0.1,0.4,0.2,0.5c0.1,0.1,0.3,0.2,0.5,0.2
		h3.9c0.1,0,0.2,0,0.3-0.1c0.1-0.1,0.1-0.2,0.1-0.3V14.7z M91.9,3.9c0,0.1,0,0.2,0.1,0.3c0.1,0.1,0.2,0.1,0.3,0.1h2.6v2.6
		c0,0.1,0,0.2,0.1,0.3c0.1,0.1,0.2,0.1,0.3,0.1h1.3c0.1,0,0.2,0,0.3-0.1c0.1-0.1,0.1-0.2,0.1-0.3V3.1c0-0.2-0.1-0.4-0.2-0.5
		c-0.1-0.1-0.3-0.2-0.5-0.2h-3.9c-0.1,0-0.2,0-0.3,0.1c-0.1,0.1-0.1,0.2-0.1,0.3V3.9z M95.3,11.3c-0.1,0-0.2,0-0.3,0.1
		c-0.1,0.1-0.1,0.2-0.1,0.3v2.6h-2.6c-0.1,0-0.2,0-0.3,0.1c-0.1,0.1-0.1,0.2-0.1,0.3v1.3c0,0.1,0,0.2,0.1,0.3
		c0.1,0.1,0.2,0.1,0.3,0.1h3.9c0.2,0,0.4-0.1,0.5-0.2c0.1-0.1,0.2-0.3,0.2-0.5v-3.9c0-0.1,0-0.2-0.1-0.3c-0.1-0.1-0.2-0.1-0.3-0.1
		H95.3z"/>
</g>
<g>
	<path d="M107.6,6.3c0,0.2-0.1,0.4-0.2,0.5C107.3,7,107.1,7,106.9,7H103c-0.1,0-0.2,0-0.3-0.1c-0.1-0.1-0.1-0.2-0.1-0.3V5.4
		c0-0.1,0-0.2,0.1-0.3c0.1-0.1,0.2-0.1,0.3-0.1h2.6V2.4c0-0.1,0-0.2,0.1-0.3c0.1-0.1,0.2-0.1,0.3-0.1h1.3c0.1,0,0.2,0,0.3,0.1
		c0.1,0.1,0.1,0.2,0.1,0.3V6.3z M107.6,15.7c0,0.1,0,0.2-0.1,0.3c-0.1,0.1-0.2,0.1-0.3,0.1H106c-0.1,0-0.2,0-0.3-0.1
		c-0.1-0.1-0.1-0.2-0.1-0.3v-2.6H103c-0.1,0-0.2,0-0.3-0.1c-0.1-0.1-0.1-0.2-0.1-0.3v-1.3c0-0.1,0-0.2,0.1-0.3
		c0.1-0.1,0.2-0.1,0.3-0.1h3.9c0.2,0,0.4,0.1,0.5,0.2c0.1,0.1,0.2,0.3,0.2,0.5V15.7z M116.3,7c0.1,0,0.2,0,0.3-0.1
		c0.1-0.1,0.1-0.2,0.1-0.3V5.4c0-0.1,0-0.2-0.1-0.3c-0.1-0.1-0.2-0.1-0.3-0.1h-2.6V2.4c0-0.1,0-0.2-0.1-0.3
		c-0.1-0.1-0.2-0.1-0.3-0.1H112c-0.1,0-0.2,0-0.3,0.1c-0.1,0.1-0.1,0.2-0.1,0.3v3.9c0,0.2,0.1,0.4,0.2,0.5C112,7,112.2,7,112.4,7
		H116.3z M113.7,15.7c0,0.1,0,0.2-0.1,0.3c-0.1,0.1-0.2,0.1-0.3,0.1H112c-0.1,0-0.2,0-0.3-0.1c-0.1-0.1-0.1-0.2-0.1-0.3v-3.9
		c0-0.2,0.1-0.4,0.2-0.5c0.1-0.1,0.3-0.2,0.5-0.2h3.9c0.1,0,0.2,0,0.3,0.1c0.1,0.1,0.1,0.2,0.1,0.3v1.3c0,0.1,0,0.2-0.1,0.3
		c-0.1,0.1-0.2,0.1-0.3,0.1h-2.6V15.7z"/>
</g>
<g>
	<path d="M136.5,4.1c0.4,0,0.8,0.1,1.1,0.4c0.3,0.3,0.4,0.6,0.4,1.1v9c0,0.4-0.1,0.8-0.4,1.1c-0.3,0.3-0.6,0.4-1.1,0.4h-13
		c-0.4,0-0.8-0.1-1.1-0.4c-0.3-0.3-0.4-0.6-0.4-1.1v-9c0-0.4,0.1-0.8,0.4-1.1c0.3-0.3,0.6-0.4,1.1-0.4H136.5z M136.3,14.6
		c0,0,0.1,0,0.1-0.1c0,0,0.1-0.1,0.1-0.1V5.7c0,0,0-0.1-0.1-0.1c0,0-0.1-0.1-0.1-0.1h-12.6c0,0-0.1,0-0.1,0.1c0,0-0.1,0.1-0.1,0.1
		v8.6c0,0,0,0.1,0.1,0.1c0,0,0.1,0.1,0.1,0.1H136.3z M129.7,11.9l-0.6-0.8c0-0.1-0.1-0.1-0.1-0.1s-0.1,0-0.2,0.1
		c-0.4,0.4-0.8,0.6-1.3,0.6c-0.4,0-0.8-0.1-1.1-0.4c-0.3-0.3-0.5-0.7-0.5-1.2c0-0.5,0.2-0.9,0.5-1.1c0.3-0.3,0.7-0.4,1.2-0.4
		c0.5,0,0.9,0.2,1.3,0.5c0,0,0.1,0.1,0.1,0c0.1,0,0.1,0,0.1-0.1l0.5-0.9c0-0.1,0-0.1,0-0.2c-0.5-0.5-1.2-0.8-2.1-0.8
		c-0.9,0-1.6,0.2-2.3,0.7c-0.7,0.5-1,1.3-1,2.3c0,0.8,0.2,1.4,0.6,1.9c0.4,0.5,0.9,0.8,1.5,1s1.2,0.2,1.8,0.1
		c0.6-0.1,1.1-0.4,1.5-0.9C129.8,12,129.8,11.9,129.7,11.9z M135.6,11.9L135,11c0-0.1-0.1-0.1-0.1-0.1c-0.1,0-0.1,0-0.1,0.1
		c-0.4,0.4-0.9,0.6-1.3,0.6c-0.5,0-0.8-0.1-1.1-0.4c-0.3-0.3-0.5-0.7-0.5-1.2c0-0.5,0.2-0.9,0.5-1.1c0.3-0.3,0.7-0.4,1.2-0.4
		c0.5,0,0.9,0.2,1.3,0.5c0,0,0.1,0.1,0.2,0c0.1,0,0.1,0,0.1-0.1l0.5-0.9c0-0.1,0-0.1,0-0.2c-0.5-0.5-1.3-0.8-2.1-0.8
		c-0.9,0-1.6,0.2-2.3,0.7c-0.7,0.5-1,1.3-1,2.3c0,0.8,0.2,1.4,0.6,1.9c0.4,0.5,0.9,0.8,1.5,1s1.2,0.2,1.8,0.1
		c0.6-0.1,1.1-0.4,1.5-0.9C135.7,12,135.7,11.9,135.6,11.9z"/>
</g>
<g>
	<path d="M156.7,4c0.4,0,0.8,0.1,1.1,0.4c0.3,0.3,0.4,0.6,0.4,1.1v9c0,0.4-0.1,0.8-0.4,1.1c-0.3,0.3-0.6,0.4-1.1,0.4h-13
		c-0.4,0-0.8-0.1-1.1-0.4c-0.3-0.3-0.4-0.6-0.4-1.1v-9c0-0.4,0.1-0.8,0.4-1.1c0.3-0.3,0.6-0.4,1.1-0.4H156.7z M149,11
		c-0.4,0.4-0.8,0.6-1.3,0.6c-0.4,0-0.8-0.1-1.1-0.4c-0.3-0.3-0.5-0.7-0.5-1.2c0-0.5,0.2-0.9,0.5-1.1c0.3-0.3,0.7-0.4,1.2-0.4
		c0.5,0,0.9,0.2,1.3,0.5c0.1,0,0.1,0.1,0.2,0c0.1,0,0.1,0,0.1-0.1l0.5-0.9c0-0.1,0-0.1,0-0.2c-0.5-0.5-1.2-0.8-2.1-0.8
		c-0.9,0-1.6,0.2-2.3,0.7c-0.7,0.5-1,1.3-1,2.3c0,0.8,0.2,1.4,0.6,1.9c0.4,0.5,0.9,0.8,1.5,1s1.2,0.2,1.8,0.1
		c0.6-0.1,1.1-0.4,1.5-0.9c0.1-0.1,0.1-0.2,0-0.3l-0.6-0.8c0-0.1-0.1-0.1-0.1-0.1S149,11,149,11z M154.9,11
		c-0.4,0.4-0.9,0.6-1.3,0.6c-0.5,0-0.8-0.1-1.1-0.4c-0.3-0.3-0.5-0.7-0.5-1.2c0-0.5,0.2-0.9,0.5-1.1c0.3-0.3,0.7-0.4,1.2-0.4
		c0.5,0,0.9,0.2,1.3,0.5c0,0,0.1,0.1,0.2,0c0.1,0,0.1,0,0.1-0.1l0.5-0.9c0-0.1,0-0.1,0-0.2c-0.5-0.5-1.3-0.8-2.1-0.8
		c-0.9,0-1.6,0.2-2.3,0.7c-0.7,0.5-1,1.3-1,2.3c0,0.8,0.2,1.4,0.6,1.9c0.4,0.5,0.9,0.8,1.5,1s1.2,0.2,1.8,0.1
		c0.6-0.1,1.1-0.4,1.5-0.9c0.1-0.1,0.1-0.2,0-0.3l-0.6-0.8c0-0.1-0.1-0.1-0.1-0.1C155,11,155,11,154.9,11z"/>
</g>
<g>
	<path d="M176.7,2.2c0.1,0,0.2,0,0.3,0.1c0.1,0.1,0.1,0.2,0.1,0.3v6.3c0,0.1,0,0.2-0.1,0.3c-0.1,0.1-0.2,0.1-0.3,0.1h-6.3
		c-0.1,0-0.2,0-0.3-0.1c-0.1-0.1-0.1-0.2-0.1-0.3V7.4c0-0.1,0-0.2,0.1-0.3c0.1-0.1,0.2-0.1,0.3-0.1l3.2,0.2c-0.5-0.8-1.2-1.3-2-1.8
		c-0.8-0.4-1.7-0.7-2.6-0.7c-1,0-1.9,0.2-2.8,0.7c-0.8,0.5-1.5,1.2-2,2s-0.7,1.8-0.7,2.8s0.2,1.9,0.7,2.8s1.2,1.5,2,2
		c0.8,0.5,1.8,0.7,2.8,0.7c0.7,0,1.3-0.1,2-0.4c0.6-0.2,1.2-0.6,1.7-1c0.1-0.1,0.2-0.1,0.3-0.1s0.2,0,0.3,0.1l1.1,1.1
		c0.1,0.1,0.1,0.2,0.1,0.3c0,0.1,0,0.2-0.1,0.3c-0.7,0.6-1.5,1.1-2.4,1.5c-0.9,0.4-1.8,0.5-2.8,0.5c-1.4,0-2.7-0.3-3.9-1
		c-1.2-0.7-2.1-1.6-2.8-2.8c-0.7-1.2-1-2.5-1-3.9s0.3-2.7,1-3.9s1.6-2.1,2.8-2.8c1.2-0.7,2.5-1,3.9-1c1.2,0,2.3,0.2,3.3,0.7
		c1,0.5,1.9,1.1,2.6,2l-0.1-2.6c0-0.1,0-0.2,0.1-0.3c0.1-0.1,0.2-0.1,0.3-0.1H176.7z"/>
</g>
<g>
	<g>
		<path fill="#FFFFFF" d="M201.9,49.8c16.1,0,29.2,13.1,29.2,29.2h-6c0-12.8-10.4-23.2-23.2-23.2"/>
	</g>
	<path opacity="0.7" d="M225.1,79L225.1,79c0,12.8-10.4,23.2-23.2,23.2S178.7,91.8,178.7,79c0-12.8,10.4-23.2,23.2-23.2v-6
		c-16.1,0-29.2,13.1-29.2,29.2c0,16.1,13.1,29.2,29.2,29.2s29.2-13.1,29.2-29.2v0H225.1z"/>
</g>
<g>
	<circle cx="183.4" cy="14.7" r="1.5"/>
	<circle cx="183.4" cy="9.7" r="1.5"/>
	<path d="M197.8,3.7c-0.1-0.1-0.2-0.1-0.4-0.1h-11c-0.1,0-0.3,0-0.4,0.1s-0.1,0.2-0.1,0.4v1.3c0,0.1,0,0.3,0.1,0.4s0.2,0.1,0.4,0.1
		h11c0.1,0,0.3,0,0.4-0.1s0.1-0.2,0.1-0.4V4.1C197.9,3.9,197.9,3.8,197.8,3.7z"/>
	<path d="M197.4,8.6h-11c-0.1,0-0.3,0-0.4,0.1s-0.1,0.2-0.1,0.4v1.3c0,0.1,0,0.3,0.1,0.4s0.2,0.1,0.4,0.1h11c0.1,0,0.3,0,0.4-0.1
		s0.1-0.2,0.1-0.4V9.1c0-0.1,0-0.3-0.1-0.4S197.5,8.6,197.4,8.6z"/>
	<path d="M197.4,13.6h-11c-0.1,0-0.3,0-0.4,0.1s-0.1,0.2-0.1,0.4v1.3c0,0.1,0,0.3,0.1,0.4s0.2,0.1,0.4,0.1h11c0.1,0,0.3,0,0.4-0.1
		s0.1-0.2,0.1-0.4v-1.3c0-0.1,0-0.3-0.1-0.4S197.5,13.6,197.4,13.6z"/>
	<circle cx="183.4" cy="4.7" r="1.5"/>
</g>
</svg>
